<svg id="visual" viewBox="0 0 1905 330" width="1905" height="330" xmlns="http://www.w3.org/2000/svg" xmlns:xlink="http://www.w3.org/1999/xlink" version="1.1"><path d="M0 18L136 47L272 18L408 37L544 24L680 47L816 47L953 47L1089 27L1225 27L1361 27L1497 34L1633 41L1769 34L1905 18L1905 0L1769 0L1633 0L1497 0L1361 0L1225 0L1089 0L953 0L816 0L680 0L544 0L408 0L272 0L136 0L0 0Z" fill="#47b2e4"></path><path d="M0 41L136 84L272 70L408 57L544 44L680 87L816 93L953 97L1089 57L1225 64L1361 77L1497 54L1633 57L1769 60L1905 64L1905 16L1769 32L1633 39L1497 32L1361 25L1225 25L1089 25L953 45L816 45L680 45L544 22L408 35L272 16L136 45L0 16Z" fill="#459ed0"></path><path d="M0 103L136 136L272 97L408 110L544 70L680 136L816 120L953 133L1089 110L1225 93L1361 113L1497 100L1633 116L1769 116L1905 123L1905 62L1769 58L1633 55L1497 52L1361 75L1225 62L1089 55L953 95L816 91L680 85L544 42L408 55L272 68L136 82L0 39Z" fill="#428abc"></path><path d="M0 216L136 202L272 196L408 176L544 150L680 183L816 192L953 189L1089 232L1225 159L1361 206L1497 163L1633 216L1769 192L1905 232L1905 121L1769 114L1633 114L1497 98L1361 111L1225 91L1089 108L953 131L816 118L680 134L544 68L408 108L272 95L136 134L0 101Z" fill="#4076a8"></path><path d="M0 272L136 268L272 298L408 298L544 295L680 278L816 305L953 308L1089 291L1225 245L1361 291L1497 278L1633 291L1769 285L1905 265L1905 230L1769 190L1633 214L1497 161L1361 204L1225 157L1089 230L953 187L816 190L680 181L544 148L408 174L272 194L136 200L0 214Z" fill="#3c6493"></path><path d="M0 331L136 331L272 331L408 331L544 331L680 331L816 331L953 331L1089 331L1225 331L1361 331L1497 331L1633 331L1769 331L1905 331L1905 263L1769 283L1633 289L1497 276L1361 289L1225 243L1089 289L953 306L816 303L680 276L544 293L408 296L272 296L136 266L0 270Z" fill="#37527e"></path></svg>